<?xml version="1.0" standalone="no"?>
<!DOCTYPE svg PUBLIC "-//W3C//DTD SVG 20010904//EN"
 "http://www.w3.org/TR/2001/REC-SVG-20010904/DTD/svg10.dtd">
<svg version="1.0" xmlns="http://www.w3.org/2000/svg"
 width="700.000000pt" height="700.000000pt" viewBox="0 0 700.000000 700.000000"
 preserveAspectRatio="xMidYMid meet">
<metadata>
Created by potrace 1.11, written by Peter Selinger 2001-2013
</metadata>
<g transform="translate(0.000000,700.000000) scale(0.100000,-0.100000)"
fill="#000000" stroke="none">
<path d="M5940 6860 c-79 -57 -208 -134 -350 -210 -125 -66 -292 -164 -376
-222 -152 -103 -152 -103 -282 -263 -72 -88 -197 -226 -279 -307 -143 -143
-150 -148 -223 -173 -41 -14 -172 -48 -290 -75 -262 -59 -303 -78 -390 -185
-33 -40 -82 -89 -109 -109 -44 -33 -55 -36 -113 -36 -43 0 -89 8 -139 26 -69
23 -78 24 -134 13 -33 -7 -78 -21 -100 -31 -46 -20 -93 -23 -129 -7 -23 11
-25 18 -28 82 l-3 70 -185 34 c-543 97 -537 96 -688 48 -42 -14 -80 -25 -84
-25 -4 0 -17 18 -28 39 -19 38 -21 39 -52 31 -41 -12 -1644 -401 -1751 -426
-70 -16 -78 -20 -74 -39 21 -108 951 -4471 953 -4473 2 -3 78 -17 301 -53 l72
-12 68 41 c67 40 69 40 133 33 50 -5 84 -17 151 -54 104 -57 152 -110 207
-228 49 -106 95 -143 202 -163 71 -14 72 -14 246 30 97 24 183 44 193 44 9 0
46 -20 81 -45 35 -24 100 -58 144 -75 78 -30 82 -31 111 -15 17 9 44 33 60 54
17 21 45 48 64 61 31 20 42 22 110 16 42 -3 108 -15 146 -26 98 -28 145 -25
265 15 97 33 110 40 168 98 34 34 74 80 87 103 23 40 65 78 113 103 38 20 76
-3 138 -82 69 -88 158 -145 270 -174 61 -15 105 -35 187 -87 l107 -67 81 15
c45 9 82 17 83 18 1 2 48 73 104 159 61 92 116 188 133 234 l30 78 -16 75
c-14 63 -15 89 -6 167 6 52 11 121 11 154 0 52 7 75 59 185 l59 124 46 7 c58
9 73 3 81 -33 3 -17 19 -51 35 -76 27 -42 33 -46 69 -46 36 0 45 6 109 75 l69
75 -13 73 c-7 39 -13 129 -13 198 -1 126 -1 128 36 205 24 51 59 103 100 147
34 38 94 113 132 167 l70 97 113 12 c191 20 175 13 200 95 18 60 36 89 117
192 l96 121 88 39 c49 22 92 44 97 49 4 6 19 47 33 91 l26 81 -36 200 -36 200
46 250 47 249 -11 145 c-6 79 -14 147 -17 151 -4 4 -51 23 -105 43 -54 19
-110 41 -123 48 l-25 13 61 49 c33 28 69 63 81 79 l22 29 -33 103 c-18 59 -29
108 -24 116 4 7 32 43 61 79 l52 65 -305 1090 c-350 1251 -313 1124 -322 1124
-4 0 -63 -41 -132 -90z m-951 -2226 c41 -52 13 -117 -49 -117 -64 0 -92 72
-45 118 32 33 68 32 94 -1z m-355 -26 c36 -51 5 -118 -53 -118 -32 0 -71 39
-71 70 0 10 9 29 21 44 27 34 81 36 103 4z m536 -218 c30 -30 27 -83 -6 -109
-15 -12 -32 -21 -39 -21 -7 0 -24 9 -39 21 -50 39 -23 129 39 129 14 0 34 -9
45 -20z m-351 -26 c29 -37 27 -78 -5 -103 -15 -12 -35 -21 -46 -21 -27 0 -68
45 -68 75 0 33 41 75 74 75 15 0 33 -11 45 -26z m-314 -64 c10 -11 18 -34 17
-51 -2 -93 -135 -92 -135 1 0 62 77 95 118 50z m818 -139 c51 -20 56 -105 8
-130 -30 -16 -52 -13 -78 11 -33 30 -31 80 3 107 30 24 34 24 67 12z m-326
-46 c46 -32 31 -116 -23 -129 -68 -17 -113 79 -58 123 32 25 52 26 81 6z
m-847 -37 c34 -23 409 -529 431 -581 8 -20 9 -40 3 -65 -10 -41 58 11 -763
-585 -267 -194 -494 -357 -505 -364 -28 -17 -61 -16 -96 2 -18 9 -100 114
-222 282 -107 148 -200 278 -206 290 -21 39 -15 90 16 122 25 27 1166 859
1236 902 41 25 66 24 106 -3z m540 -38 c11 -11 20 -33 20 -50 0 -66 -79 -94
-120 -43 -53 67 40 153 100 93z m504 -192 c36 -51 5 -118 -53 -118 -32 0 -71
39 -71 70 0 10 9 29 21 44 27 34 81 36 103 4z m-312 -68 c24 -25 29 -36 23
-58 -10 -39 -34 -62 -67 -62 -65 0 -94 88 -42 129 36 28 50 26 86 -9z m-2339
-861 c43 -58 -17 -136 -84 -108 -52 21 -63 68 -28 113 28 36 83 33 112 -5z
m-337 -60 c10 -11 18 -36 18 -56 0 -68 -80 -98 -129 -48 -30 29 -32 64 -5 98
31 40 83 42 116 6z m523 -204 c49 -25 56 -81 15 -122 -20 -20 -31 -24 -57 -19
-78 15 -91 106 -22 144 26 15 31 15 64 -3z m-366 -36 c49 -22 61 -86 22 -124
-33 -34 -70 -32 -107 5 -35 36 -33 71 8 108 28 25 42 27 77 11z m-314 -65 c12
-15 21 -37 21 -49 0 -36 -37 -75 -71 -75 -42 0 -64 14 -78 49 -10 24 -10 34 3
59 18 34 28 40 73 41 23 1 37 -6 52 -25z m910 -208 c48 -51 2 -149 -63 -132
-63 16 -86 87 -41 131 31 32 74 33 104 1z m-369 -26 c25 -25 27 -86 3 -112
-26 -29 -87 -24 -112 8 -12 15 -21 37 -21 49 0 12 9 34 21 49 26 33 79 36 109
6z m-340 -40 c25 -25 27 -86 3 -112 -40 -45 -133 -6 -133 56 0 65 84 102 130
56z m549 -246 c55 -70 -11 -159 -88 -120 -50 26 -58 92 -15 125 37 29 78 27
103 -5z m-356 -35 c49 -22 61 -86 22 -124 -32 -33 -74 -33 -105 0 -39 42 -27
104 25 125 27 12 31 12 58 -1z"/>
</g>
</svg>
